<?xml version="1.0" standalone="no"?>
<!DOCTYPE svg PUBLIC "-//W3C//DTD SVG 20010904//EN"
 "http://www.w3.org/TR/2001/REC-SVG-20010904/DTD/svg10.dtd">
<svg version="1.0" xmlns="http://www.w3.org/2000/svg"
 width="1024.000000pt" height="1024.000000pt" viewBox="0 0 1024 1024"
 preserveAspectRatio="xMidYMid meet">

<g transform="translate(0.000000,1024.000000) scale(0.100000,-0.100000)"
fill="#000000" stroke="none">
<path d="M6187 7017 c-16 -10 29 -47 58 -47 27 0 81 -36 106 -70 35 -47 41
-160 37 -720 -1 -294 -1 -610 0 -701 4 -186 0 -202 -61 -256 -19 -17 -58 -37
-86 -44 -28 -7 -51 -16 -51 -21 0 -4 149 -8 330 -8 317 0 330 1 330 19 0 11
-9 21 -23 25 -40 10 -76 58 -87 115 -6 34 -10 363 -10 878 0 650 -3 825 -12
828 -23 8 -520 10 -531 2z"/>
<path d="M3082 7013 c-28 -4 -31 -7 -21 -19 6 -8 24 -14 39 -14 56 0 87 -19
111 -68 19 -42 23 -71 30 -262 4 -118 10 -485 14 -815 3 -330 8 -617 11 -637
l6 -38 239 0 c232 0 239 1 230 19 -6 10 -26 22 -45 25 -45 9 -81 52 -95 115
-34 159 -36 351 -15 1347 4 166 4 313 0 328 l-6 26 -233 -2 c-127 0 -247 -3
-265 -5z"/>
<path d="M2756 6389 c-121 -29 -255 -148 -325 -291 -55 -111 -72 -181 -78
-319 -7 -151 12 -251 73 -377 54 -112 136 -201 229 -247 55 -28 68 -30 165
-30 97 0 110 2 170 31 75 36 162 108 154 129 -3 7 2 25 11 38 9 14 12 28 7 31
-5 3 -21 -12 -35 -33 -106 -160 -263 -133 -351 60 -40 90 -53 140 -66 260 -28
277 69 577 211 650 21 10 52 19 69 19 68 0 148 -67 187 -158 9 -22 19 -32 28
-28 7 2 16 0 18 -7 2 -7 8 -8 13 -4 23 22 -100 172 -184 225 -87 55 -197 74
-296 51z"/>
<path d="M4511 6363 c2 -6 33 -32 69 -59 74 -56 93 -85 116 -174 15 -57 16
-92 8 -275 -12 -291 -12 -691 1 -704 7 -7 89 -6 260 5 138 9 251 17 253 19 1
1 0 9 -4 18 -3 9 -22 19 -42 22 -63 10 -104 37 -137 89 l-30 49 0 498 c0 273
-3 500 -6 504 -12 11 -492 19 -488 8z"/>
<path d="M5720 6355 c0 -12 13 -15 58 -15 75 0 144 -34 206 -100 56 -60 112
-171 121 -242 7 -49 28 -87 38 -70 10 15 11 402 1 411 -5 5 -86 14 -181 20
-228 15 -243 14 -243 -4z"/>
<path d="M7405 6349 c-154 -10 -287 -16 -296 -13 -9 2 -19 -2 -22 -10 -5 -12
10 -17 70 -27 52 -8 84 -19 102 -35 l26 -23 -24 -46 c-36 -69 -102 -137 -205
-214 -99 -74 -266 -239 -266 -263 0 -9 55 -69 123 -135 151 -147 258 -260 274
-287 23 -39 15 -53 -42 -80 -57 -26 -78 -52 -54 -67 16 -10 692 -10 728 0 40
11 35 28 -12 40 -84 21 -227 132 -422 327 -130 131 -274 305 -320 386 l-24 44
77 51 c42 28 187 115 322 193 135 78 249 146 255 151 23 23 -28 24 -290 8z"/>
<path d="M5419 6333 c-122 -61 -189 -169 -189 -307 0 -109 22 -169 83 -228
105 -101 178 -132 527 -225 93 -25 185 -86 215 -144 8 -14 17 -53 21 -87 6
-56 4 -66 -19 -101 -17 -26 -43 -47 -72 -60 -25 -11 -45 -25 -45 -30 0 -16 4
-15 83 22 78 37 163 106 199 165 21 33 23 49 22 147 0 80 -5 121 -18 149 -26
61 -95 144 -140 170 -59 34 -313 121 -443 151 -120 28 -159 48 -206 107 -68
85 -47 213 44 261 26 14 49 17 102 14 56 -4 65 -2 56 9 -8 10 -35 14 -88 14
-64 0 -87 -5 -132 -27z"/>
<path d="M3708 6343 c-29 -5 -39 -23 -12 -23 8 0 12 -4 9 -10 -4 -6 6 -10 22
-10 15 0 45 -5 66 -11 34 -9 42 -18 65 -67 30 -63 29 -34 21 -542 -4 -260 5
-321 59 -410 34 -55 70 -80 175 -120 76 -30 88 -32 172 -27 114 7 179 27 238
73 44 35 89 93 93 121 4 24 -14 23 -29 -1 -24 -36 -104 -84 -152 -92 -103 -15
-179 27 -210 114 -27 79 -50 683 -35 927 l5 80 -230 1 c-126 1 -242 -1 -257
-3z"/>
<path d="M5243 5605 c-10 -27 2 -424 14 -436 6 -6 105 -21 220 -33 288 -32
299 -29 177 35 -110 58 -191 118 -272 204 -83 87 -115 143 -115 203 0 42 -12
56 -24 27z"/>
<path d="M3150 5076 c-109 -31 -236 -114 -314 -206 -47 -55 -109 -168 -100
-182 12 -19 31 -5 54 40 34 65 175 211 226 233 50 23 189 39 241 29 110 -22
171 -81 202 -198 29 -105 41 -296 31 -478 -11 -202 -26 -265 -78 -344 -45 -67
-87 -90 -163 -90 -49 0 -60 4 -96 35 -24 20 -48 53 -57 78 -19 49 -36 233 -29
299 l5 45 182 9 181 9 3 35 c2 21 -2 38 -11 45 -12 9 -343 6 -646 -6 l-84 -4
6 -70 c23 -269 201 -499 432 -560 298 -77 608 141 690 487 21 91 19 258 -4
350 -57 220 -206 385 -400 442 -65 19 -206 20 -271 2z"/>
<path d="M4671 5064 c-119 -32 -209 -85 -248 -147 -13 -21 -22 -41 -19 -44 3
-3 27 14 55 39 79 71 185 89 271 46 92 -47 117 -148 105 -413 -16 -320 -7
-705 16 -705 5 0 9 5 9 11 0 7 29 9 93 5 50 -3 161 -8 245 -12 l152 -6 0 25
c0 22 -5 25 -50 31 -70 9 -106 42 -120 111 -7 35 -10 172 -8 402 3 313 1 353
-15 399 -30 86 -69 137 -143 186 -123 82 -226 104 -343 72z"/>
<path d="M6457 5070 c-79 -14 -156 -58 -227 -130 -77 -78 -128 -170 -166 -295
-24 -80 -27 -106 -28 -240 -1 -128 3 -162 22 -230 116 -402 468 -530 721 -260
61 65 76 93 45 81 -14 -5 -15 -4 -4 9 7 9 10 18 7 21 -3 3 -32 -21 -64 -54
-86 -88 -151 -95 -232 -26 -53 46 -114 170 -136 279 -21 102 -22 304 -1 400
45 213 145 355 248 355 57 0 104 -26 143 -79 19 -25 40 -54 47 -64 9 -12 17
-14 28 -8 12 8 7 20 -25 67 -88 127 -241 197 -378 174z m333 -1113 c0 -2 -10
-12 -22 -23 l-23 -19 19 23 c18 21 26 27 26 19z"/>
<path d="M5516 5040 c-217 -5 -248 -12 -189 -44 35 -18 96 -82 116 -121 37
-73 40 -138 32 -657 -3 -277 -7 -528 -8 -558 -1 -30 2 -152 7 -271 l9 -216
161 -1 c89 -1 200 -5 249 -8 87 -7 87 -7 87 17 0 20 -11 28 -69 52 -118 47
-106 -47 -103 853 2 640 5 791 16 818 16 39 58 71 135 102 115 47 98 48 -443
34z"/>
<path d="M3820 5026 c0 -9 17 -16 49 -21 56 -8 103 -33 127 -69 29 -45 36
-173 24 -451 -14 -354 -17 -652 -6 -662 5 -4 11 -2 13 5 4 9 63 12 251 12 136
0 253 4 260 8 24 16 1 38 -51 52 -90 23 -116 39 -129 84 -9 30 -13 178 -13
548 l0 508 -262 0 c-219 0 -263 -2 -263 -14z"/>
<path d="M6937 5023 c-4 -3 -7 -422 -7 -930 l0 -923 258 2 c256 3 296 9 212
34 -59 17 -97 50 -114 97 -25 68 -49 332 -42 455 12 215 17 630 9 752 -9 133
-1 321 17 374 19 58 90 109 169 122 23 4 44 11 47 15 6 10 -539 12 -549 2z"/>
</g>
</svg>
